<?xml version="1.0" encoding="UTF-8"?>
<svg width="32" height="32" version="1.1" viewBox="0 0 8.4667 8.4667" xmlns="http://www.w3.org/2000/svg">
 <g transform="translate(0 -288.53)">
  <g>
   <circle cx="4.2333" cy="292.77" r="3.2362" fill="#fff" style="paint-order:normal"/>
   <path d="m4.2333 288.53 0.66548 4.2333-0.66548 4.2333-0.66548-4.2333z"/>
   <path d="m8.4667 292.77-4.2333 0.6655-4.2333-0.6655 4.2333-0.66547z"/>
  </g>
  <g fill="#fff">
   <path d="m6.7442 291.54h-1.4056q-1.0308 2e-3 -1.0308 1.0394 0 0.14175 0 0.37798 0.00146 1.0394 1.0308 1.0394 0.65595 0 1.4056 0v-0.37798h-1.4525q-0.59884-2e-3 -0.60909-0.61421 0-0.18899 0-0.47247 0.00439-0.62898 0.60909-0.61421 0.56224 0 1.4525 0z" stroke="#000" stroke-linejoin="round" stroke-width=".19844"/>
   <circle cx="4.8038" cy="289.58" r=".17777" style="paint-order:normal"/>
   <path d="m4.3079 291.09v-2.4568h0.51539l0.7028 1.1339 0.7028-1.1339h0.51539v2.4568h-0.37483q0-0.85044 0-1.9844-0.28112 0.47248-0.56224 0.94495h-0.56224l-0.56078-0.93903-0.00146 1.9785z" stroke="#000" stroke-linejoin="round" stroke-width=".19844"/>
   <circle cx="6.2053" cy="295.38" r=".17777" style="paint-order:normal"/>
   <path d="m4.3079 296.9v-2.4569h1.7804q0.65595 0 0.65595 0.70871t-0.65595 0.70871q-0.18741 0-1.4056 0 0 0.189 0 0.42523t0 0.61421q-0.18741 0-0.37483 0zm0.37483-2.0789v0.66145h1.4056q0.28112 0 0.28112-0.33073 0-0.33072-0.28112-0.33072-0.74965 0-1.4056 0z" stroke="#000" stroke-linejoin="round" stroke-width=".19844"/>
  </g>
 </g>
</svg>
